<svg id="Layer_1" data-name="Layer 1" xmlns="http://www.w3.org/2000/svg" width="256" height="256" viewBox="0 0 256 256"><title>self-illustration</title><path d="M143.2,129.6a18.4,18.4,0,0,1-36.3,0,68.5,68.5,0,0,0,36.3,0Z" fill="none" stroke="red" stroke-linecap="round" stroke-miterlimit="10" stroke-width="3"/><path d="M206,103.1v130H44v-130h3.8q-.3,3.2-.3,6.5a77.5,77.5,0,1,0,155,0q0-3.3-.3-6.5Z" fill="none" stroke="red" stroke-linecap="round" stroke-miterlimit="10" stroke-width="3"/><path d="M106.6,127.1a17.8,17.8,0,0,0,.2,2.6,18.4,18.4,0,0,0,36.3,0,17.8,17.8,0,0,0,.2-2.6Z" fill="none" stroke="red" stroke-linecap="round" stroke-miterlimit="10" stroke-width="3"/><path d="M193.5,145.8v87.2H56.5V145.8a77.5,77.5,0,0,0,137,0Z" fill="none" stroke="red" stroke-linecap="round" stroke-miterlimit="10" stroke-width="3"/><path d="M202.2,103.1H188.7l.2.7,1.1,6.1c2.1,11.6-.9,14.6-10.5,15.9l-27,1.6h-2.3c-5.5-.5-10.5-3.3-11.4-8.4l-1.1-6.1a8.4,8.4,0,0,1-.1-1h0c-1-4.1-8.3-4.8-12-4.8s-12.1,1.5-13,5h0a5.7,5.7,0,0,1-.1.7l-1.1,6.1c-.9,5.1-5.9,7.9-11.4,8.4H97.7l-27-1.6C61,124.6,58,121.6,60.1,110l1.1-6.1.2-.7H47.8q-.3,3.2-.3,6.5a77.5,77.5,0,1,0,155,0Q202.5,106.3,202.2,103.1Zm-59.1,26.6a18.4,18.4,0,0,1-36.3,0,17.8,17.8,0,0,1-.2-2.6h36.8A17.8,17.8,0,0,1,143.2,129.6Z" fill="none" stroke="red" stroke-linecap="round" stroke-miterlimit="10" stroke-width="3"/><path d="M106.6,127.1a17.8,17.8,0,0,0,.2,2.6,18.4,18.4,0,0,0,36.3,0,17.8,17.8,0,0,0,.2-2.6Z" fill="none" stroke="red" stroke-linecap="round" stroke-miterlimit="10" stroke-width="3"/><path d="M137.5,111.8c-1-4.1-8.3-4.8-12-4.8s-12.1,1.5-13,5a10.5,10.5,0,0,0-3.9-9h32.9A10.6,10.6,0,0,0,137.5,111.8Z" fill="none" stroke="red" stroke-linecap="round" stroke-miterlimit="10" stroke-width="3"/><path d="M143.4,127.1a17.8,17.8,0,0,1-.2,2.6,18.4,18.4,0,0,1-36.3,0,17.8,17.8,0,0,1-.2-2.6Z" fill="none" stroke="red" stroke-linecap="round" stroke-miterlimit="10" stroke-width="3"/><path d="M206,103.1H188.7a9.7,9.7,0,0,0-2.5-4.4,12.4,12.4,0,0,0-11-3.3l-27.6,4.9a12.9,12.9,0,0,0-6.1,2.8H108.6a12.9,12.9,0,0,0-6.1-2.8L74.9,95.4a12.4,12.4,0,0,0-11,3.3,9.7,9.7,0,0,0-2.5,4.4H44a80.6,80.6,0,0,1,4.2-25q.9-2.8,2.1-5.5a81,81,0,0,1,149.4,0q1.1,2.7,2.1,5.5A80.6,80.6,0,0,1,206,103.1Z" fill="none" stroke="red" stroke-linecap="round" stroke-miterlimit="10" stroke-width="3"/><path d="M71.3,93.9c-.4-4,6-8,14.2-8.8s15.3,1.7,15.8,5.7" fill="none" stroke="red" stroke-linecap="round" stroke-miterlimit="10" stroke-width="3"/><path d="M148.6,90.8c.4-4,7.5-6.6,15.8-5.7S179,90,178.6,94" fill="none" stroke="red" stroke-linecap="round" stroke-miterlimit="10" stroke-width="3"/><path d="M189.9,110l-1.1-6.1-.2-.7a9.7,9.7,0,0,0-2.5-4.4,12.4,12.4,0,0,0-11-3.3l-27.6,4.9a12.9,12.9,0,0,0-6.1,2.8,10.6,10.6,0,0,0-4,8.8h0a8.4,8.4,0,0,0,.1,1l1.1,6.1c.9,5.1,5.9,7.9,11.4,8.4h2.3l27-1.6C189,124.6,192,121.6,189.9,110Zm-19.2,5.2a7,7,0,0,1-6.6,4.9h0a7,7,0,1,1,6.7-4.9Z" fill="none" stroke="red" stroke-linecap="round" stroke-miterlimit="10" stroke-width="3"/><path d="M171,113.1a7,7,0,0,1-7,7h0a7,7,0,1,1,7-7Z" fill="none" stroke="red" stroke-linecap="round" stroke-miterlimit="10" stroke-width="3"/><path d="M93,113.1a7,7,0,0,1-7,7h0a7,7,0,1,1,7-7Z" fill="none" stroke="red" stroke-linecap="round" stroke-miterlimit="10" stroke-width="3"/><path d="M108.6,103.1a12.9,12.9,0,0,0-6.1-2.8L74.9,95.4a12.4,12.4,0,0,0-11,3.3,9.7,9.7,0,0,0-2.5,4.4l-.2.7L60.1,110c-2.1,11.6.9,14.6,10.5,15.9l27,1.6h2.3c5.5-.5,10.5-3.3,11.4-8.4l1.1-6.1a5.7,5.7,0,0,0,.1-.7h0A10.5,10.5,0,0,0,108.6,103.1ZM86,120.1h0a7,7,0,1,1,7-7A7,7,0,0,1,86,120.1Z" fill="none" stroke="red" stroke-linecap="round" stroke-miterlimit="10" stroke-width="3"/><path d="M33,50v1c0-.3,0-.7,0-1Z"/><path d="M149.2,129.6a18.4,18.4,0,0,1-36.3,0,68.5,68.5,0,0,0,36.3,0Z" fill="none" stroke="aqua" stroke-linecap="round" stroke-miterlimit="10" stroke-width="3"/><path d="M212,103.1v130H50v-130h3.8q-.3,3.2-.3,6.5a77.5,77.5,0,1,0,155,0q0-3.3-.3-6.5Z" fill="none" stroke="aqua" stroke-linecap="round" stroke-miterlimit="10" stroke-width="3"/><path d="M112.6,127.1a17.8,17.8,0,0,0,.2,2.6,18.4,18.4,0,0,0,36.3,0,17.8,17.8,0,0,0,.2-2.6Z" fill="none" stroke="aqua" stroke-linecap="round" stroke-miterlimit="10" stroke-width="3"/><path d="M199.5,145.8v87.2H62.5V145.8a77.5,77.5,0,0,0,137,0Z" fill="none" stroke="aqua" stroke-linecap="round" stroke-miterlimit="10" stroke-width="3"/><path d="M208.2,103.1H194.7l.2.7,1.1,6.1c2.1,11.6-.9,14.6-10.5,15.9l-27,1.6h-2.3c-5.5-.5-10.5-3.3-11.4-8.4l-1.1-6.1a8.4,8.4,0,0,1-.1-1h0c-1-4.1-8.3-4.8-12-4.8s-12.1,1.5-13,5h0a5.7,5.7,0,0,1-.1.7l-1.1,6.1c-.9,5.1-5.9,7.9-11.4,8.4h-2.3l-27-1.6C67,124.6,64,121.6,66.1,110l1.1-6.1.2-.7H53.8q-.3,3.2-.3,6.5a77.5,77.5,0,1,0,155,0Q208.5,106.3,208.2,103.1Zm-59.1,26.6a18.4,18.4,0,0,1-36.3,0,17.8,17.8,0,0,1-.2-2.6h36.8A17.8,17.8,0,0,1,149.2,129.6Z" fill="none" stroke="aqua" stroke-linecap="round" stroke-miterlimit="10" stroke-width="3"/><path d="M112.6,127.1a17.8,17.8,0,0,0,.2,2.6,18.4,18.4,0,0,0,36.3,0,17.8,17.8,0,0,0,.2-2.6Z" fill="none" stroke="aqua" stroke-linecap="round" stroke-miterlimit="10" stroke-width="3"/><path d="M143.5,111.8c-1-4.1-8.3-4.8-12-4.8s-12.1,1.5-13,5a10.5,10.5,0,0,0-3.9-9h32.9A10.6,10.6,0,0,0,143.5,111.8Z" fill="none" stroke="aqua" stroke-linecap="round" stroke-miterlimit="10" stroke-width="3"/><path d="M149.4,127.1a17.8,17.8,0,0,1-.2,2.6,18.4,18.4,0,0,1-36.3,0,17.8,17.8,0,0,1-.2-2.6Z" fill="none" stroke="aqua" stroke-linecap="round" stroke-miterlimit="10" stroke-width="3"/><path d="M212,103.1H194.7a9.7,9.7,0,0,0-2.5-4.4,12.4,12.4,0,0,0-11-3.3l-27.6,4.9a12.9,12.9,0,0,0-6.1,2.8H114.6a12.9,12.9,0,0,0-6.1-2.8L80.9,95.4a12.4,12.4,0,0,0-11,3.3,9.7,9.7,0,0,0-2.5,4.4H50a80.6,80.6,0,0,1,4.2-25q.9-2.8,2.1-5.5a81,81,0,0,1,149.4,0q1.1,2.7,2.1,5.5A80.6,80.6,0,0,1,212,103.1Z" fill="none" stroke="aqua" stroke-linecap="round" stroke-miterlimit="10" stroke-width="3"/><path d="M77.3,93.9c-.4-4,6-8,14.2-8.8s15.3,1.7,15.8,5.7" fill="none" stroke="aqua" stroke-linecap="round" stroke-miterlimit="10" stroke-width="3"/><path d="M154.6,90.8c.4-4,7.5-6.6,15.8-5.7S185,90,184.6,94" fill="none" stroke="aqua" stroke-linecap="round" stroke-miterlimit="10" stroke-width="3"/><path d="M195.9,110l-1.1-6.1-.2-.7a9.7,9.7,0,0,0-2.5-4.4,12.4,12.4,0,0,0-11-3.3l-27.6,4.9a12.9,12.9,0,0,0-6.1,2.8,10.6,10.6,0,0,0-4,8.8h0a8.4,8.4,0,0,0,.1,1l1.1,6.1c.9,5.1,5.9,7.9,11.4,8.4h2.3l27-1.6C195,124.6,198,121.6,195.9,110Zm-19.2,5.2a7,7,0,0,1-6.6,4.9h0a7,7,0,1,1,6.7-4.9Z" fill="none" stroke="aqua" stroke-linecap="round" stroke-miterlimit="10" stroke-width="3"/><path d="M177,113.1a7,7,0,0,1-7,7h0a7,7,0,1,1,7-7Z" fill="none" stroke="aqua" stroke-linecap="round" stroke-miterlimit="10" stroke-width="3"/><path d="M99,113.1a7,7,0,0,1-7,7h0a7,7,0,1,1,7-7Z" fill="none" stroke="aqua" stroke-linecap="round" stroke-miterlimit="10" stroke-width="3"/><path d="M114.6,103.1a12.9,12.9,0,0,0-6.1-2.8L80.9,95.4a12.4,12.4,0,0,0-11,3.3,9.7,9.7,0,0,0-2.5,4.4l-.2.7L66.1,110c-2.1,11.6.9,14.6,10.5,15.9l27,1.6h2.3c5.5-.5,10.5-3.3,11.4-8.4l1.1-6.1a5.7,5.7,0,0,0,.1-.7h0A10.5,10.5,0,0,0,114.6,103.1ZM92,120.1h0a7,7,0,1,1,7-7A7,7,0,0,1,92,120.1Z" fill="none" stroke="aqua" stroke-linecap="round" stroke-miterlimit="10" stroke-width="3"/><path d="M146.2,129.6a18.4,18.4,0,0,1-36.3,0,68.5,68.5,0,0,0,36.3,0Z" fill="none" stroke="#000" stroke-linecap="round" stroke-miterlimit="10" stroke-width="3"/><path d="M209,103.1v130H47v-130h3.8q-.3,3.2-.3,6.5a77.5,77.5,0,1,0,155,0q0-3.3-.3-6.5Z" fill="none" stroke="#000" stroke-linecap="round" stroke-miterlimit="10" stroke-width="3"/><path d="M109.6,127.1a17.8,17.8,0,0,0,.2,2.6,18.4,18.4,0,0,0,36.3,0,17.8,17.8,0,0,0,.2-2.6Z" fill="none" stroke="#000" stroke-linecap="round" stroke-miterlimit="10" stroke-width="3"/><path d="M196.5,145.8v87.2H59.5V145.8a77.5,77.5,0,0,0,137,0Z" fill="none" stroke="#000" stroke-linecap="round" stroke-miterlimit="10" stroke-width="3"/><path d="M205.2,103.1H191.7l.2.7,1.1,6.1c2.1,11.6-.9,14.6-10.5,15.9l-27,1.6h-2.3c-5.5-.5-10.5-3.3-11.4-8.4l-1.1-6.1a8.4,8.4,0,0,1-.1-1h0c-1-4.1-8.3-4.8-12-4.8s-12.1,1.5-13,5h0a5.7,5.7,0,0,1-.1.7l-1.1,6.1c-.9,5.1-5.9,7.9-11.4,8.4h-2.3l-27-1.6C64,124.6,61,121.6,63.1,110l1.1-6.1.2-.7H50.8q-.3,3.2-.3,6.5a77.5,77.5,0,1,0,155,0Q205.5,106.3,205.2,103.1Zm-59.1,26.6a18.4,18.4,0,0,1-36.3,0,17.8,17.8,0,0,1-.2-2.6h36.8A17.8,17.8,0,0,1,146.2,129.6Z" fill="none" stroke="#000" stroke-linecap="round" stroke-miterlimit="10" stroke-width="3"/><path d="M109.6,127.1a17.8,17.8,0,0,0,.2,2.6,18.4,18.4,0,0,0,36.3,0,17.8,17.8,0,0,0,.2-2.6Z" fill="none" stroke="#000" stroke-linecap="round" stroke-miterlimit="10" stroke-width="3"/><path d="M140.5,111.8c-1-4.1-8.3-4.8-12-4.8s-12.1,1.5-13,5a10.5,10.5,0,0,0-3.9-9h32.9A10.6,10.6,0,0,0,140.5,111.8Z" fill="none" stroke="#000" stroke-linecap="round" stroke-miterlimit="10" stroke-width="3"/><path d="M146.4,127.1a17.8,17.8,0,0,1-.2,2.6,18.4,18.4,0,0,1-36.3,0,17.8,17.8,0,0,1-.2-2.6Z" fill="none" stroke="#000" stroke-linecap="round" stroke-miterlimit="10" stroke-width="3"/><path d="M209,103.1H191.7a9.7,9.7,0,0,0-2.5-4.4,12.4,12.4,0,0,0-11-3.3l-27.6,4.9a12.9,12.9,0,0,0-6.1,2.8H111.6a12.9,12.9,0,0,0-6.1-2.8L77.9,95.4a12.4,12.4,0,0,0-11,3.3,9.7,9.7,0,0,0-2.5,4.4H47a80.6,80.6,0,0,1,4.2-25q.9-2.8,2.1-5.5a81,81,0,0,1,149.4,0q1.1,2.7,2.1,5.5A80.6,80.6,0,0,1,209,103.1Z" fill="none" stroke="#000" stroke-linecap="round" stroke-miterlimit="10" stroke-width="3"/><path d="M74.3,93.9c-.4-4,6-8,14.2-8.8s15.3,1.7,15.8,5.7" fill="none" stroke="#000" stroke-linecap="round" stroke-miterlimit="10" stroke-width="3"/><path d="M151.6,90.8c.4-4,7.5-6.6,15.8-5.7S182,90,181.6,94" fill="none" stroke="#000" stroke-linecap="round" stroke-miterlimit="10" stroke-width="3"/><path d="M192.9,110l-1.1-6.1-.2-.7a9.7,9.7,0,0,0-2.5-4.4,12.4,12.4,0,0,0-11-3.3l-27.6,4.9a12.9,12.9,0,0,0-6.1,2.8,10.6,10.6,0,0,0-4,8.8h0a8.4,8.4,0,0,0,.1,1l1.1,6.1c.9,5.1,5.9,7.9,11.4,8.4h2.3l27-1.6C192,124.6,195,121.6,192.9,110Zm-19.2,5.2a7,7,0,0,1-6.6,4.9h0a7,7,0,1,1,6.7-4.9Z" fill="none" stroke="#000" stroke-linecap="round" stroke-miterlimit="10" stroke-width="3"/><path d="M174,113.1a7,7,0,0,1-7,7h0a7,7,0,1,1,7-7Z" fill="none" stroke="#000" stroke-linecap="round" stroke-miterlimit="10" stroke-width="3"/><path d="M96,113.1a7,7,0,0,1-7,7h0a7,7,0,1,1,7-7Z" fill="none" stroke="#000" stroke-linecap="round" stroke-miterlimit="10" stroke-width="3"/><path d="M111.6,103.1a12.9,12.9,0,0,0-6.1-2.8L77.9,95.4a12.4,12.4,0,0,0-11,3.3,9.7,9.7,0,0,0-2.5,4.4l-.2.7L63.1,110c-2.1,11.6.9,14.6,10.5,15.9l27,1.6h2.3c5.5-.5,10.5-3.3,11.4-8.4l1.1-6.1a5.7,5.7,0,0,0,.1-.7h0A10.5,10.5,0,0,0,111.6,103.1ZM89,120.1h0a7,7,0,1,1,7-7A7,7,0,0,1,89,120.1Z" fill="none" stroke="#000" stroke-linecap="round" stroke-miterlimit="10" stroke-width="3"/></svg>
